<svg xmlns="http://www.w3.org/2000/svg" width="861.875" height="109.312" viewBox="0 0 861.875 109.312">
  <defs>
    <style>
      .cls-1 {
        fill-rule: evenodd;
      }
    </style>
  </defs>
  <path id="logo.svg" class="cls-1" d="M131.23,3.215V106.1a3.214,3.214,0,0,1-3.212,3.217H100.364a3.215,3.215,0,0,1-3.212-3.217V54.814L81.043,107.052a3.213,3.213,0,0,1-3.069,2.268H53.416a3.214,3.214,0,0,1-3.07-2.268L34.237,54.814V106.1a3.215,3.215,0,0,1-3.212,3.217H3.217A3.215,3.215,0,0,1,0,106.1V3.215A3.215,3.215,0,0,1,3.217,0H39.7A3.213,3.213,0,0,1,42.72,2.107L66,65.622,88.68,2.132A3.213,3.213,0,0,1,91.7,0h36.314A3.215,3.215,0,0,1,131.23,3.215Zm69.927,105.976a55.512,55.512,0,0,1-27.6-7.059,52.959,52.959,0,0,1-19.8-19.526,54.253,54.253,0,0,1-7.35-28.087,54.251,54.251,0,0,1,7.35-28.086,51.837,51.837,0,0,1,19.8-19.376A55.51,55.51,0,0,1,201.157,0a54.675,54.675,0,0,1,27.449,7.059,50.771,50.771,0,0,1,19.65,19.376,54.251,54.251,0,0,1,7.35,28.086,54.253,54.253,0,0,1-7.35,28.087,51.558,51.558,0,0,1-19.8,19.526A54.4,54.4,0,0,1,201.157,109.191Zm0-31.091q9.9,0,15.3-6.308,5.4-6.458,5.4-17.273,0-10.964-5.4-17.273-5.4-6.458-15.3-6.458-10.049,0-15.449,6.458-5.4,6.309-5.4,17.273,0,10.814,5.4,17.273Q191.108,78.1,201.157,78.1ZM327.612,109.32a3.213,3.213,0,0,1-2.846-1.725L305.159,70.1h-0.154v36a3.215,3.215,0,0,1-3.213,3.217H273.984a3.214,3.214,0,0,1-3.212-3.217V3.215A3.215,3.215,0,0,1,273.984,0h47.674q13.262,0,22.668,4.787A31.592,31.592,0,0,1,358.358,17.6a34.928,34.928,0,0,1,4.781,18.22,32.257,32.257,0,0,1-6.168,19.456q-6.015,8.492-17.425,12.2l21.019,37.039a3.216,3.216,0,0,1-2.792,4.806H327.612ZM305.005,47.248h13.569q4.935,0,7.4-2.162,2.467-2.316,2.467-7.1a8.887,8.887,0,0,0-2.621-6.794q-2.467-2.47-7.248-2.471H305.005V47.248ZM416.018,3.215V106.1a3.215,3.215,0,0,1-3.213,3.217H385a3.215,3.215,0,0,1-3.212-3.217V3.215A3.215,3.215,0,0,1,385,0h27.808A3.215,3.215,0,0,1,416.018,3.215ZM504.233,107.9L473.422,61.916V106.1a3.214,3.214,0,0,1-3.212,3.217H442.4a3.215,3.215,0,0,1-3.213-3.217V3.215A3.215,3.215,0,0,1,442.4,0H470.21a3.215,3.215,0,0,1,3.212,3.217v42.8L503.769,1.4A3.21,3.21,0,0,1,506.424,0H537.16a3.217,3.217,0,0,1,2.607,5.1L505.805,52.343,542.33,104.25a3.217,3.217,0,0,1-2.627,5.07H506.9A3.211,3.211,0,0,1,504.233,107.9Zm94.178-62.217V67.5a3.215,3.215,0,0,1-3.213,3.217H561.891a3.215,3.215,0,0,1-3.213-3.217V45.678a3.215,3.215,0,0,1,3.213-3.217H595.2A3.215,3.215,0,0,1,598.411,45.678ZM729.226,109.32H699.935a3.21,3.21,0,0,1-2.681-1.445L661.968,54.35V106.1a3.214,3.214,0,0,1-3.212,3.217H630.948a3.215,3.215,0,0,1-3.213-3.217V3.215A3.215,3.215,0,0,1,630.948,0h29.276a3.211,3.211,0,0,1,2.694,1.466l35.288,54.43V3.215A3.215,3.215,0,0,1,701.418,0h27.808a3.215,3.215,0,0,1,3.213,3.217V106.1A3.215,3.215,0,0,1,729.226,109.32Zm78.12-.007a55.577,55.577,0,0,1-27.634-7.068A53.024,53.024,0,0,1,759.889,82.7a54.32,54.32,0,0,1-7.359-28.121,54.322,54.322,0,0,1,7.359-28.121,51.9,51.9,0,0,1,19.823-19.4A55.577,55.577,0,0,1,807.346-.014a54.74,54.74,0,0,1,27.482,7.068,50.831,50.831,0,0,1,19.674,19.4,54.322,54.322,0,0,1,7.358,28.121A54.32,54.32,0,0,1,854.5,82.7a51.612,51.612,0,0,1-19.824,19.55A54.454,54.454,0,0,1,807.346,109.313Zm0-31.129q9.912,0,15.318-6.316,5.406-6.467,5.406-17.294,0-10.978-5.406-17.294-5.406-6.467-15.318-6.466-10.062,0-15.469,6.467-5.406,6.315-5.407,17.294,0,10.827,5.407,17.294Q797.285,78.184,807.346,78.184Z"/>
</svg>
