<svg width="320" height="76" viewBox="0 0 320 76" fill="none" xmlns="http://www.w3.org/2000/svg">
<path fill-rule="evenodd" clip-rule="evenodd" d="M306.105 53.0236C301.558 53.0225 297.014 53.252 292.491 53.7112C288.259 54.1558 284.863 54.5853 282.302 54.9995C280.677 55.2076 279.561 55.3408 278.942 55.3995C278.586 55.4244 278.238 55.5196 277.919 55.6798C277.601 55.84 277.317 56.062 277.084 56.3328C275.094 58.396 272.816 60.1617 270.321 61.5752C268.984 62.3378 267.538 62.8921 266.034 63.2192C265.278 63.4155 264.481 63.3854 263.742 63.1326C263.004 62.8797 262.355 62.4153 261.878 61.7971C261.156 60.9893 260.67 59.9976 260.475 58.9314C260.28 57.8652 260.383 56.7659 260.773 55.7546C261.182 54.6378 261.732 53.5778 262.409 52.6004C262.522 52.4336 262.643 52.2741 262.76 52.111C260.839 53.5912 257.937 55.6944 254.054 58.4205C253.435 58.7468 252.816 59.0578 252.198 59.3537C252.009 59.4437 251.804 59.4955 251.595 59.5062C251.386 59.5169 251.177 59.4863 250.98 59.4162C250.783 59.3461 250.602 59.2378 250.447 59.0975C250.291 58.9572 250.165 58.7877 250.076 58.5986C249.763 58.1604 249.56 57.6537 249.483 57.1209C249.406 56.5881 249.457 56.0446 249.633 55.5358C249.811 54.8845 250.017 54.2477 250.253 53.6256C250.46 53.1483 250.637 52.6585 250.783 52.1592C250.871 51.8092 250.871 51.4427 250.783 51.0928C250.778 51.0426 250.762 50.9942 250.735 50.9516C250.709 50.9091 250.672 50.8737 250.628 50.8484C250.524 50.7746 250.43 50.7083 250.341 50.6483C250.223 50.6487 250.105 50.6562 249.988 50.6708C249.868 50.6862 249.75 50.7083 249.633 50.7371C248.031 51.1734 246.509 51.8634 245.124 52.7811C241.033 55.2066 237.132 57.9396 233.454 60.9564C232.63 61.6373 231.79 62.2741 230.935 62.8666C230.81 62.9298 230.692 63.0043 230.582 63.0892C230.461 63.1651 230.326 63.2142 230.184 63.2333C230.043 63.2524 229.9 63.241 229.763 63.1998C229.457 63.145 229.182 62.979 228.99 62.7335C228.048 61.6671 227.9 60.586 228.548 59.49C229.075 58.5478 229.666 57.6423 230.316 56.7797C233.499 52.4854 236.711 48.1906 239.953 43.8951C240.044 43.7523 240.149 43.6184 240.265 43.495C240.354 43.3775 240.42 43.2881 240.464 43.2287C240.508 43.1694 240.545 43.1175 240.575 43.0731C240.628 43.0017 240.687 42.935 240.752 42.8737C240.84 42.7843 240.987 42.6368 241.193 42.4293C241.315 42.322 241.462 42.2473 241.621 42.2124C241.779 42.1774 241.944 42.1832 242.1 42.2292C242.446 42.2767 242.766 42.4413 243.006 42.6955C243.207 42.9086 243.347 43.171 243.413 43.4559C243.479 43.7409 243.468 44.0382 243.381 44.3176C243.169 44.8401 242.879 45.327 242.519 45.7615C242.423 45.8592 242.335 45.9636 242.254 46.0741L240.663 48.2068C240.338 48.6515 240.007 49.1032 239.668 49.562C239.33 50.0208 238.91 50.576 238.408 51.2278C238.138 51.6221 237.901 52.0384 237.701 52.4723C237.635 52.5726 237.576 52.677 237.524 52.7848C237.55 52.8387 237.579 52.8908 237.612 52.9405C237.62 52.958 237.633 52.9733 237.648 52.9849C237.663 52.9966 237.681 53.0043 237.701 53.0074C237.74 53.044 237.785 53.074 237.834 53.0961C237.874 53.1204 237.919 53.1355 237.966 53.1405C238.407 52.962 238.835 52.7531 239.248 52.5154C240.044 52.0125 240.854 51.5089 241.679 51.0046C242.475 50.5021 243.285 50.0135 244.111 49.5388C245.34 48.8021 246.664 48.2344 248.045 47.8512C248.546 47.7006 249.072 47.6525 249.593 47.7097C250.113 47.7669 250.616 47.9284 251.073 48.1843C252.019 48.7257 252.722 49.6077 253.04 50.6502C253.361 51.5326 253.423 52.4887 253.217 53.4049V53.6274C253.187 53.8036 253.172 53.982 253.172 54.1606C253.172 54.2469 253.191 54.3321 253.23 54.4093C253.268 54.4865 253.324 54.5536 253.394 54.6051C253.451 54.6604 253.523 54.6981 253.602 54.7138C253.68 54.7296 253.761 54.7226 253.836 54.6938C254.631 54.3384 255.943 53.6274 257.77 52.5611C259.597 51.4947 261.18 50.6208 262.52 49.9395C263.493 49.4094 264.532 49.0101 265.61 48.7519C266.96 47.4072 268.451 46.2126 270.057 45.189C270.777 44.7689 271.531 44.4121 272.312 44.1226C272.725 43.9761 273.172 43.9606 273.594 44.0782C273.832 44.1702 274.046 44.3134 274.221 44.4978C274.397 44.6821 274.53 44.903 274.61 45.1446C274.639 45.1995 274.654 45.2603 274.655 45.3221C274.683 45.3771 274.698 45.4378 274.699 45.4996C274.994 46.0634 275.348 46.2718 275.762 46.1247L276.381 45.8584L277.088 45.5915C277.77 45.3516 278.516 45.3674 279.188 45.6359C279.775 45.8884 280.263 46.3253 280.579 46.8804C280.954 47.6121 281.101 48.4397 281 49.2557C280.95 50.1315 280.715 50.9868 280.312 51.766C280.271 51.8356 280.245 51.9138 280.238 51.9946C280.231 52.0755 280.242 52.1569 280.27 52.2329C280.3 52.2854 280.342 52.3305 280.391 52.3651C280.441 52.3997 280.497 52.4229 280.557 52.4329C280.666 52.4597 280.777 52.4746 280.889 52.4773H280.927C282.918 52.4394 284.905 52.2762 286.876 51.9885C288.951 51.6922 291.109 51.3663 293.351 51.0109C296.12 50.5371 298.933 50.1224 301.79 49.767C304.591 49.4149 307.412 49.2516 310.234 49.2782C313.297 49.3374 315.721 49.7595 317.504 50.5446C319.288 51.3297 320.121 52.6106 320.004 54.3875C315.431 53.4519 310.773 52.9949 306.105 53.0236ZM272.351 53.7112C271.965 53.1158 271.625 52.4921 271.334 51.8454C271.202 51.5163 271.146 51.162 271.169 50.8084C271.192 50.4548 271.293 50.1107 271.466 49.8014C271.613 49.5051 271.775 49.2088 271.953 48.9125C272.102 48.701 272.235 48.4782 272.351 48.2462V48.0687C272.338 48.0577 272.327 48.0441 272.319 48.0289C272.312 48.0136 272.307 47.997 272.306 47.9799C272.276 47.9505 272.244 47.9212 272.218 47.8905C272.173 47.8389 272.109 47.807 272.041 47.8018C271.922 47.7729 271.796 47.7887 271.688 47.8461C270.76 48.3979 269.893 49.0457 269.101 49.7789C268.32 50.5052 267.576 51.2532 266.869 52.0229C265.928 53.0869 265.042 54.1991 264.217 55.3551C263.395 56.532 262.865 57.8873 262.67 59.3093C262.656 59.4589 262.675 59.6097 262.724 59.7515C262.774 59.8933 262.853 60.0228 262.957 60.1313C263.041 60.2439 263.151 60.3334 263.279 60.3917C263.406 60.4499 263.546 60.475 263.686 60.4645H263.907C264.193 60.4367 264.475 60.3772 264.747 60.287C266.116 59.9081 267.431 59.3557 268.659 58.643C269.887 57.9286 271.061 57.1266 272.174 56.2434C272.387 56.1382 272.576 55.9918 272.732 55.8126C272.887 55.6333 273.006 55.4249 273.08 55.1995C272.974 54.6481 272.724 54.1348 272.354 53.7124L272.351 53.7112ZM277.832 49.5795C277.815 49.5147 277.785 49.4541 277.743 49.4013L277.566 49.3126C277.526 49.2888 277.481 49.2737 277.434 49.2682C276.211 49.6732 275.134 50.4306 274.34 51.4453C274.304 51.497 274.288 51.5602 274.295 51.6228C274.294 51.7064 274.309 51.7894 274.34 51.8672C274.359 51.9244 274.389 51.9772 274.428 52.0229C275.223 52.4396 275.872 52.4248 276.373 51.9785C277.049 51.328 277.577 50.5391 277.92 49.6657C277.893 49.6401 277.864 49.6107 277.835 49.5807L277.832 49.5795ZM226.897 50.1308C226.951 50.1679 226.997 50.216 227.031 50.2718C227.065 50.3277 227.087 50.39 227.095 50.4549C227.103 50.5198 227.098 50.5857 227.079 50.6483C227.06 50.7109 227.028 50.7689 226.986 50.8184C226.866 50.9577 226.716 51.0682 226.548 51.1413C226.379 51.2143 226.196 51.2482 226.013 51.2403C217.554 51.4178 221.582 51.5807 213.096 51.7291C211.888 51.7291 210.679 51.6847 209.471 51.596C207.378 51.3876 206.023 50.7804 205.404 49.7745C205.375 49.7237 205.36 49.6663 205.36 49.6079C205.36 49.5495 205.375 49.4921 205.404 49.4413C205.477 49.2925 205.592 49.1687 205.736 49.0857C205.886 48.9851 206.063 48.9309 206.244 48.93C206.715 48.93 207.187 48.9152 207.658 48.8857C209.839 48.8265 212.019 48.7821 214.201 48.7525H215.201V48.8413H222.786C224.615 48.9017 225.986 49.3319 226.901 50.132L226.897 50.1308ZM207.004 24.3428C205.833 26.2876 204.406 28.066 202.761 29.6303C200.755 31.6168 198.597 33.444 196.307 35.0953C193.201 37.3832 189.937 39.447 186.538 41.271C185.123 42.0115 183.665 42.6926 182.162 43.3144C182.069 43.3477 181.98 43.3924 181.897 43.4475C181.263 43.69 180.685 44.0593 180.199 44.533C179.712 45.0067 179.327 45.5747 179.068 46.2022C179.07 46.2476 179.078 46.2925 179.091 46.336C179.099 46.3857 179.122 46.4318 179.156 46.4691C179.207 46.5229 179.267 46.5679 179.333 46.6022C179.388 46.631 179.448 46.6462 179.51 46.6466C179.582 46.612 179.656 46.5824 179.731 46.5579C180.41 46.3505 181.075 46.0982 181.72 45.8028C184.576 44.5893 187.498 43.5361 190.471 42.6481C191.502 42.3526 192.268 42.7672 192.77 43.8919C192.83 43.9917 192.854 44.1097 192.836 44.2251C192.832 44.3312 192.793 44.4329 192.725 44.5145C192.37 44.7817 191.984 45.0054 191.576 45.1808C190.722 45.5663 189.867 45.9363 189.013 46.291C187.745 46.8248 186.493 47.358 185.256 47.8905C184.129 48.5377 183.12 49.3715 182.272 50.3564C181.358 51.3291 180.509 52.3606 179.73 53.4443C179.38 54.0268 179.112 54.6549 178.934 55.3108C178.649 56.1627 178.508 57.0559 178.514 57.9542C178.471 58.2936 178.559 58.6366 178.761 58.9132C178.962 59.1898 179.261 59.3791 179.598 59.4425C179.815 59.4956 180.037 59.5253 180.26 59.5312C180.331 59.558 180.406 59.573 180.481 59.5756C181.357 59.5795 182.23 59.4979 183.089 59.3318C183.914 59.1689 184.71 58.9837 185.476 58.7762L185.83 58.6874C188.239 57.9798 190.537 56.9406 192.66 55.5995C194.796 54.2519 196.866 52.8078 198.87 51.2672C199.43 50.8234 199.991 50.3939 200.551 49.9789C200.964 49.6963 201.419 49.4791 201.899 49.3351C202.037 49.2566 202.197 49.223 202.355 49.2389C202.513 49.2548 202.663 49.3194 202.783 49.4238C202.915 49.6164 202.731 50.0235 202.23 50.6452C200.64 52.4496 198.95 54.1629 197.167 55.7771C195.431 57.3487 193.517 58.7122 191.465 59.84C189.302 61.0051 186.966 61.8151 184.546 62.239C183.629 62.417 182.691 62.4619 181.762 62.3722C180.765 62.3337 179.795 62.0345 178.95 61.5044C178.104 60.9744 177.413 60.2319 176.944 59.3512C176.502 58.6934 176.206 57.9485 176.077 57.1667C175.947 56.385 175.987 55.5845 176.193 54.8194C176.223 54.7011 176.253 54.5969 176.282 54.5069C176.605 53.5005 176.693 52.9157 176.547 52.7523C176.401 52.589 175.812 52.774 174.779 53.3074C172.199 54.5153 169.998 56.405 168.414 58.7724C167.589 59.9567 166.704 61.1118 165.761 62.2378C165.408 62.6824 165.04 63.1269 164.656 63.5711C164.59 63.656 164.5 63.7199 164.398 63.7553C164.296 63.7906 164.186 63.7959 164.081 63.7705C163.819 63.7092 163.585 63.5604 163.418 63.3486C162.829 62.6377 162.697 61.9861 163.021 61.394C163.057 61.3542 163.087 61.3091 163.109 61.2602L163.374 60.8158C165.018 58.508 166.691 56.2242 168.391 53.9644C167.582 54.415 166.715 54.8757 165.762 55.3514C163.566 56.4478 161.297 57.4918 158.955 58.4836C156.613 59.4754 154.483 60.2826 152.567 60.9051C151.213 61.4031 149.802 61.7314 148.368 61.8828C147.522 61.9145 146.693 61.6469 146.025 61.1271C145.416 60.6375 144.95 59.993 144.677 59.2612C144.399 58.5402 144.301 57.7628 144.389 56.9953C144.499 56.3364 144.708 55.6977 145.008 55.1007C144.968 55.1527 144.917 55.1944 144.857 55.2225C144.798 55.2507 144.733 55.2644 144.668 55.2626H144.491C144.113 55.2986 143.733 55.2372 143.386 55.0845C142.858 54.7897 142.41 54.3704 142.081 53.8631C141.771 53.3762 141.539 52.8439 141.394 52.2854C141.306 51.948 141.321 51.5919 141.438 51.2634C141.556 50.8788 141.674 50.4937 141.792 50.1083C141.88 49.872 141.969 49.6351 142.057 49.3976C142.115 49.1613 142.027 49.0873 141.792 49.1757C141.685 49.2129 141.58 49.2574 141.479 49.3088C141.185 49.4273 140.903 49.5762 140.639 49.7533C135.402 53.3305 130.465 57.3275 125.875 61.7046C125.021 62.5339 124.152 63.3486 123.267 64.1487C123.142 64.2496 122.994 64.3186 122.836 64.3495C122.678 64.3804 122.515 64.3724 122.361 64.3262C121.999 64.2212 121.681 64.0019 121.455 63.7011C121.165 63.4188 120.97 63.0527 120.899 62.6543C120.827 62.2559 120.882 61.8451 121.056 61.4796C121.348 60.8936 121.705 60.3422 122.119 59.8356C123.825 57.4604 125.53 55.0868 127.236 52.7148C125.972 53.2753 124.659 53.7181 123.313 54.0375C121.442 54.4959 119.718 54.8365 118.141 55.0595C116.565 55.2824 115.408 55.4231 114.671 55.4814C113.961 55.5276 113.296 55.846 112.815 56.3703C110.846 58.4392 108.581 60.2058 106.095 61.6127C104.754 62.3766 103.31 62.9449 101.808 63.3004C101.052 63.4968 100.255 63.4668 99.5167 63.2141C98.7779 62.9614 98.1296 62.4971 97.6525 61.879C96.9298 61.0712 96.4441 60.0796 96.2491 59.0133C96.0541 57.9471 96.1573 56.8477 96.5474 55.8364C96.9584 54.7147 97.4921 53.6418 98.1388 52.6373C100.145 49.6719 102.75 47.1594 105.786 45.2615C106.492 44.8175 107.249 44.4595 108.041 44.1951C108.453 44.0186 108.916 43.9949 109.344 44.1282C109.586 44.2241 109.804 44.3711 109.983 44.5591C110.162 44.747 110.299 44.9715 110.383 45.2171C110.388 45.2641 110.404 45.3096 110.428 45.3502C110.428 45.4121 110.443 45.473 110.471 45.5278C110.737 46.1212 111.091 46.3295 111.534 46.1528C111.745 46.0923 111.952 46.0182 112.153 45.9309L112.86 45.664C113.551 45.4237 114.307 45.4476 114.982 45.7309C115.585 45.998 116.089 46.4492 116.42 47.0198C116.753 47.5768 116.929 48.214 116.928 48.8631C116.869 49.4557 116.78 50.0629 116.663 50.6846C116.602 50.9032 116.557 51.1262 116.53 51.3515C116.499 51.5199 116.53 51.6939 116.619 51.8404C116.655 51.9078 116.705 51.9666 116.766 52.0126C116.827 52.0587 116.898 52.0907 116.972 52.1066C118.986 52.1812 121.001 52.0398 122.984 51.6847C125.161 51.3206 127.287 50.6973 129.316 49.8283C131.191 47.2234 133.067 44.621 134.942 42.0211C135.148 41.7539 135.402 41.5278 135.692 41.3548C135.796 41.3255 135.904 41.3182 136.011 41.3335C136.117 41.3488 136.22 41.3863 136.311 41.4435C136.737 41.6875 137.065 42.0723 137.239 42.5318C137.312 42.7396 137.338 42.9609 137.315 43.1799C137.292 43.3989 137.22 43.6101 137.106 43.7982C136.397 44.9533 135.69 46.1085 134.984 47.2636C134.689 47.6786 134.41 48.108 134.144 48.5525C133.936 48.8788 133.73 49.2194 133.525 49.5745C133.26 49.9595 133.01 50.3443 132.775 50.729C132.628 50.9665 132.687 51.0555 132.952 50.9959H133.195C133.24 50.9959 133.262 50.9815 133.262 50.9515C133.644 50.6848 134.027 50.4183 134.411 50.152C135 49.7078 135.589 49.2782 136.179 48.8631C138.359 47.383 140.54 45.9318 142.721 44.5095C143.34 44.1541 143.974 43.8282 144.622 43.5319C144.684 43.5314 144.745 43.5159 144.799 43.4869C145.099 43.3409 145.427 43.265 145.761 43.265C146.094 43.265 146.422 43.3409 146.722 43.4869C147.353 43.8146 147.835 44.3709 148.07 45.0421C148.173 45.3051 148.222 45.5862 148.215 45.8685C148.207 46.1509 148.143 46.4289 148.026 46.686C147.79 47.0715 147.555 47.4269 147.319 47.7524C147.263 47.868 147.188 47.9736 147.098 48.0649L146.479 48.9531C145.83 49.9308 145.167 50.8936 144.49 51.8416C144.361 51.9923 144.266 52.1682 144.209 52.3581C144.152 52.5479 144.136 52.7475 144.161 52.9441C144.186 53.1406 144.251 53.3298 144.354 53.4994C144.456 53.6691 144.593 53.8155 144.755 53.9294C144.864 54.0639 144.953 54.2136 145.02 54.3738C145.049 54.4363 145.079 54.4925 145.109 54.5519C145.148 54.6648 145.146 54.788 145.102 54.8994C145.579 53.9752 146.122 53.0867 146.728 52.241C148.853 49.3653 151.251 46.7019 153.889 44.2882C154.186 44.0497 154.496 43.8273 154.817 43.6219C154.885 43.5557 154.959 43.496 155.038 43.4438C155.228 43.3223 155.454 43.2678 155.679 43.2887C155.927 43.3025 156.166 43.3873 156.367 43.5331C157.309 44.3032 157.398 45.1029 156.632 45.9322C154.454 48.1214 152.388 50.4198 150.444 52.8186C150.379 52.9146 150.305 53.004 150.223 53.0855C149.577 53.8524 148.971 54.6532 148.41 55.4845C147.837 56.3403 147.377 57.2661 147.039 58.2392C147.027 58.3185 147.032 58.3997 147.055 58.4766C147.078 58.5536 147.118 58.6244 147.172 58.6836C147.223 58.7529 147.289 58.8091 147.366 58.8477C147.443 58.8862 147.528 58.9061 147.614 58.9056H148.012C148.353 58.9067 148.693 58.877 149.029 58.8168C150.325 58.5209 151.592 58.195 152.83 57.8392C155.589 57.025 158.291 56.0306 160.92 54.8626C163.513 53.7074 165.825 52.6263 167.858 51.6191C169.305 50.9065 170.513 50.3258 171.505 49.8689C172.941 48.0108 174.392 46.1662 175.858 44.3351C180.175 38.9745 184.721 33.8058 189.496 28.829C191.204 27.0225 192.987 25.2898 194.844 23.6308C196.287 22.417 197.761 21.2618 199.265 20.1654C199.677 19.87 200.074 19.5737 200.458 19.2766C201.396 18.6275 202.424 18.1187 203.508 17.7664C203.973 17.6152 204.468 17.5848 204.948 17.6781C205.427 17.7714 205.875 17.9853 206.249 18.2996C207.722 19.4543 208.252 20.8464 207.84 22.4757C207.636 23.1286 207.356 23.7556 207.008 24.3441L207.004 24.3428ZM108.136 53.8012C107.729 53.2191 107.388 52.5932 107.12 51.9354C106.973 51.6038 106.905 51.243 106.921 50.8809C106.936 50.5188 107.034 50.1651 107.208 49.847C107.385 49.5516 107.562 49.2701 107.739 49.0025C107.854 48.7705 107.987 48.5477 108.136 48.3362C108.136 48.3053 108.128 48.275 108.114 48.2474C108.1 48.22 108.092 48.1896 108.092 48.1587C108.094 48.1347 108.091 48.1105 108.084 48.0877C108.076 48.0648 108.064 48.0437 108.048 48.0255C108.031 48.0246 108.014 48.0202 107.999 48.0125C107.984 48.0049 107.97 47.9942 107.959 47.9812C107.908 47.928 107.848 47.8829 107.783 47.8474C107.66 47.849 107.539 47.8796 107.429 47.9368C106.524 48.4929 105.673 49.1324 104.887 49.847C104.106 50.5575 103.347 51.3128 102.611 52.1129C101.655 53.1651 100.769 54.2782 99.9584 55.4451C99.1664 56.6214 98.6386 57.9553 98.4113 59.355C98.4052 59.6519 98.5111 59.9403 98.708 60.1626C98.905 60.3849 99.1785 60.5248 99.474 60.5545C99.5433 60.5226 99.619 60.5074 99.6953 60.5101C99.9603 60.4801 100.241 60.4357 100.535 60.377C101.904 59.998 103.219 59.4456 104.447 58.733C105.674 58.0186 106.849 57.2168 107.961 56.334C108.169 56.2228 108.352 56.0712 108.5 55.8881C108.648 55.7049 108.758 55.4939 108.823 55.2676C108.733 54.7251 108.495 54.2178 108.136 53.8012ZM113.617 49.6251C113.589 49.5675 113.542 49.5206 113.485 49.4913C113.472 49.4642 113.454 49.4402 113.431 49.421C113.408 49.4019 113.381 49.3881 113.352 49.3807C113.309 49.3686 113.265 49.361 113.22 49.3582C111.998 49.7421 110.92 50.4853 110.126 51.4909C110.095 51.5532 110.08 51.6217 110.081 51.691C110.081 51.7655 110.089 51.8398 110.103 51.9129C110.108 51.9458 110.12 51.9772 110.139 52.0044C110.159 52.0315 110.184 52.0535 110.214 52.0685C110.493 52.2875 110.84 52.4029 111.195 52.3948C111.549 52.3867 111.89 52.2557 112.159 52.0241C112.831 51.3791 113.344 50.5876 113.659 49.7114C113.635 49.6898 113.62 49.6595 113.617 49.627V49.6251ZM204.62 21.7231C204.615 21.676 204.6 21.6305 204.576 21.5894V21.4987C204.551 21.4419 204.515 21.3908 204.469 21.3487C204.424 21.3067 204.37 21.2745 204.311 21.2543C204.189 21.2459 204.068 21.2689 203.957 21.3212C202.903 21.8802 201.897 22.5267 200.951 23.2539C200.008 23.9794 199.095 24.7274 198.21 25.4979C196.56 26.9494 194.969 28.4672 193.437 30.0516C191.904 31.6359 190.387 33.228 188.884 34.8278V34.8753L188.773 34.9865C188.738 35.0142 188.714 35.0538 188.707 35.0978C188.706 35.1148 188.701 35.1315 188.694 35.1468C188.686 35.162 188.675 35.1756 188.662 35.1866C188.662 35.2757 188.655 35.3648 188.64 35.4528C188.625 35.5422 188.633 35.634 188.662 35.7197C188.694 35.7708 188.736 35.8148 188.786 35.8492C188.835 35.8836 188.891 35.9076 188.95 35.9198C189.079 35.9303 189.208 35.9073 189.325 35.8529C193.631 33.3556 197.56 30.2588 200.995 26.6556C201.86 25.7248 202.672 24.7458 203.426 23.7234C203.692 23.3983 203.942 23.0727 204.176 22.7464C204.349 22.5177 204.483 22.2624 204.574 21.9907C204.574 21.9288 204.589 21.868 204.618 21.8131V21.7244L204.62 21.7231ZM166.583 35.7629C166.563 35.8127 166.533 35.858 166.495 35.8961C166.457 35.9342 166.412 35.9644 166.362 35.9848C165.36 36.5478 164.372 37.0809 163.4 37.5843L162.427 38.1175C162.315 38.0608 162.196 38.0162 162.074 37.9844C161.915 37.9621 161.763 37.9009 161.632 37.8062C161.319 37.5037 161.117 37.1049 161.057 36.6736C161.023 36.4803 161.034 36.2817 161.088 36.0931C161.142 35.9044 161.238 35.7305 161.37 35.5847C162.242 34.6161 163.334 33.8699 164.553 33.4082C164.826 33.3 165.127 33.2803 165.413 33.352C165.698 33.4236 165.954 33.583 166.144 33.8077C166.379 33.9949 166.557 34.2436 166.658 34.5261C166.759 34.8085 166.78 35.1135 166.719 35.4072C166.686 35.5303 166.641 35.6496 166.583 35.7629ZM102.647 34.2077C101.793 35.5995 100.923 36.962 100.039 38.295C99.539 39.0655 99.0527 39.8365 98.5801 40.6078C96.4286 43.9557 94.4394 47.3917 92.6126 50.9159C89.8422 56.4773 87.5357 62.2581 85.7168 68.1991C85.6867 68.6438 85.3552 68.6658 84.7223 68.2654C84.3703 67.999 84.0825 67.6573 83.8798 67.2652C83.6771 66.8731 83.5647 66.4407 83.5509 65.9995C83.403 64.8885 83.8966 62.5043 85.0317 58.8468C86.406 54.6628 88.2602 50.6521 90.5573 46.8948C93.1055 42.5855 95.102 39.2904 96.5468 37.0093C97.1656 36.0317 97.7698 35.069 98.3595 34.1214C98.9491 33.1738 99.5238 32.2408 100.083 31.3224C100.672 30.4056 101.247 29.5021 101.807 28.612C101.81 28.567 101.817 28.5223 101.829 28.4789C101.841 28.4355 101.849 28.3908 101.851 28.3458V28.2564H101.807C101.689 28.1982 101.586 28.1458 101.495 28.1014C101.427 28.063 101.351 28.0401 101.274 28.0345L101.097 28.1233C99.859 28.7158 98.6362 29.338 97.4281 29.9897C95.187 31.2928 92.9993 32.6773 90.8649 34.1433C88.7304 35.6093 86.6306 37.0978 84.5654 38.6088C76.5203 44.5041 68.6667 50.665 61.0045 57.0916C59.4419 58.4251 57.8652 59.7136 56.2746 60.957C55.6558 61.4012 55.0222 61.8159 54.3738 62.2009C54.3024 62.2491 54.2285 62.2936 54.1525 62.3341C53.9002 62.4851 53.602 62.5403 53.3124 62.4897C53.0126 62.4574 52.7324 62.3253 52.5167 62.1147C52.0129 61.657 51.6722 61.0472 51.5466 60.3782C51.4256 59.7439 51.5188 59.0873 51.8116 58.5118C52.3522 57.5776 52.9425 56.6731 53.5799 55.8021C53.6975 55.6237 53.8152 55.446 53.9331 55.2689C56.4092 51.8035 58.8995 48.3675 61.4039 44.9608C64.7927 40.429 68.0343 35.8083 71.1288 31.0986C72.3228 29.2879 73.3722 27.386 74.2673 25.4104C74.3836 25.0677 74.4289 24.7049 74.4004 24.3441C74.3962 24.2938 74.3799 24.2454 74.3529 24.2028C74.326 24.1603 74.2891 24.1249 74.2454 24.0997C74.1457 24.0277 74.0333 23.9752 73.9142 23.9446C73.6891 23.9174 73.4609 23.948 73.2509 24.0334C71.4149 24.5998 69.6384 25.3439 67.9466 26.2549C63.6128 28.5652 59.3831 31.0828 55.2576 33.8077C47.9488 38.6361 40.8022 43.7011 33.8176 49.0025C23.3552 56.9418 13.3207 65.3688 3.7142 74.2836C3.57401 74.4244 3.42647 74.5577 3.27225 74.683C3.06389 74.8914 2.85763 75.0839 2.65344 75.2606C1.76917 75.9719 1.00304 75.809 0.355046 74.7718C0.106746 74.4328 -0.0196528 74.0199 -0.00365291 73.6C0.012347 73.1802 0.1698 72.778 0.443176 72.459C1.41579 71.3626 2.40301 70.2964 3.40479 69.2605C5.7038 66.8019 8.01656 64.3433 10.3431 61.8846C15.3824 56.5828 20.3923 51.2363 25.3729 45.8453C34.2139 36.3079 42.5833 26.3705 50.4808 16.0331C51.9247 14.1079 53.2951 12.1381 54.5919 10.1237C54.9457 9.62027 55.2847 9.11668 55.6089 8.61287C56.4864 7.32338 57.1437 5.89717 57.5541 4.39239C57.5801 4.27477 57.5817 4.15306 57.5588 4.0348C57.5359 3.91654 57.489 3.80423 57.421 3.70481C57.3118 3.48625 57.1216 3.31894 56.8909 3.2385C55.4875 2.97158 54.0449 2.98666 52.6473 3.28287C49.2303 3.87492 45.8929 4.85882 42.7012 6.21509C37.0745 8.5976 31.6228 11.374 26.3868 14.5235C21.1354 17.6894 16.1663 21.3015 11.5345 25.3198C10.2171 26.4658 8.96976 27.6898 7.79903 28.9852C6.62843 30.282 5.58482 31.688 4.68244 33.1838C4.21072 34.0435 3.76877 34.9174 3.35664 35.8054C3.30045 35.8877 3.25565 35.9773 3.2235 36.0717C2.87111 36.8356 2.71905 37.6767 2.78159 38.5157C2.77577 38.8753 2.87799 39.2284 3.07501 39.5292C3.27203 39.8301 3.55478 40.065 3.88672 40.2034C4.16176 40.2951 4.44236 40.3692 4.72681 40.4253C5.01321 40.5115 5.29381 40.6159 5.5669 40.7378C5.84596 40.8431 6.09794 41.0094 6.30441 41.2246C6.51087 41.4399 6.66658 41.6985 6.76016 41.9817C6.79234 42.0898 6.80731 42.2022 6.80453 42.3149C6.80866 42.4323 6.77779 42.5483 6.7158 42.6481C6.65096 42.7412 6.55812 42.8113 6.45076 42.8481C6.33501 42.8918 6.21691 42.9289 6.09698 42.9593C5.86064 42.9892 5.62075 42.9742 5.39 42.915C4.16198 42.6653 3.05078 42.0171 2.229 41.071C1.44813 40.1029 0.93728 38.9455 0.748234 37.7162C0.480265 36.2926 0.649782 34.8211 1.23451 33.4957C1.73457 32.3998 2.27984 31.3334 2.87033 30.2966C4.09786 28.3541 5.55201 26.5645 7.20211 24.9654C10.1072 22.0776 13.245 19.4338 16.5838 17.0607C23.9736 11.7206 31.9353 7.22028 40.3215 3.64293C43.3882 2.29052 46.5884 1.26394 49.8695 0.580076C50.7538 0.402139 51.6378 0.268781 52.5217 0.180021L53.7599 0.00250244C54.5303 0.0285281 55.2947 0.147738 56.0365 0.357539C56.7796 0.577475 57.466 0.956501 58.048 1.4683C58.7523 2.01772 59.3017 2.74066 59.6426 3.5663C59.9835 4.39194 60.1041 5.29197 59.9925 6.17822C59.9365 7.14437 59.6646 8.08566 59.1968 8.9329C58.9318 9.40754 58.6666 9.88135 58.4011 10.3543C57.8119 11.4795 57.1783 12.5606 56.5003 13.5978C53.1699 18.4851 49.6188 23.1797 45.8472 27.6819C40.7191 33.9327 35.4587 40.0492 30.066 46.0316L29.0034 47.3648L28.7377 47.7199C28.5293 48.0166 28.6179 48.0908 29.0034 47.9424C29.0749 47.9079 29.1486 47.8781 29.224 47.853C29.5819 47.733 29.9235 47.569 30.241 47.3648C31.9208 46.1201 33.6153 44.876 35.3247 43.6325C38.1538 41.4998 41.0122 39.4116 43.9001 37.3681C46.9642 35.1465 50.0806 32.999 53.2493 30.9255C56.418 28.8519 59.6523 26.8823 62.9523 25.0166C64.8383 23.9803 66.7392 22.9879 68.6548 22.0394C69.9739 21.4503 71.352 21.0036 72.7659 20.7068C73.504 20.5207 74.2834 20.5912 74.9761 20.9068C75.6163 21.2112 76.1651 21.6785 76.5676 22.2619C76.9578 22.8014 77.2149 23.4256 77.3177 24.0834C77.4384 25.2793 77.2559 26.4864 76.787 27.5932C75.9452 29.5833 74.94 31.5003 73.7816 33.3245C70.9225 37.7983 67.887 42.153 64.675 46.3885C63.7911 47.5736 62.9219 48.7879 62.0672 50.0314L61.3596 51.0978C61.326 51.1355 61.3032 51.1814 61.2933 51.2309C61.2787 51.2892 61.2714 51.349 61.2714 51.4091C61.2935 51.4676 61.3289 51.5201 61.3749 51.5625C61.4209 51.6049 61.4762 51.636 61.5363 51.6532C61.5964 51.6705 61.6597 51.6734 61.7212 51.6618C61.7826 51.6503 61.8405 51.6245 61.8903 51.5866C62.0369 51.4686 62.1991 51.3353 62.3766 51.1865C63.0533 50.684 63.7459 50.151 64.4543 49.5876C72.3811 43.1285 80.5295 36.982 88.8996 31.148C91.7442 29.1428 94.7116 27.3177 97.7844 25.6836C99.0553 25.0309 100.37 24.467 101.719 23.9959C102.23 23.8218 102.784 23.814 103.3 23.9735C103.817 24.1331 104.27 24.4518 104.594 24.8841C105.171 25.4861 105.562 26.2422 105.719 27.0613C105.839 27.9046 105.676 28.764 105.255 29.5047C104.43 31.0998 103.56 32.6675 102.647 34.2077Z" fill="black"/>
</svg>
